<?xml version="1.0" encoding="UTF-8"?>
<svg width="36px" height="36px" viewBox="0 0 36 36" version="1.1" xmlns="http://www.w3.org/2000/svg">
    <title>활동 아이콘</title>
    <g stroke="none" stroke-width="1" fill="none" fill-rule="evenodd">
        <path d="M16,6 L16,10 L20,10 L20,6 L16,6 Z M30,16 L26,16 L26,20 L30,20 L30,16 Z M20,26 L16,26 L16,30 L20,30 L20,26 Z M10,16 L6,16 L6,20 L10,20 L10,16 Z M18,4 C15.61,4 13.61,5.33 12.65,7.31 L10,16 L4.99,16 C3.88,16 3,16.9 3,18.01 L3,18.99 C3,20.11 3.88,21 4.99,21 L10.65,21 L12.65,28.69 C13.61,30.67 15.61,32 18,32 C20.39,32 22.39,30.67 23.34,28.69 L25.35,21 L31,21 C32.1,21 33,20.1 33,19 L33,17 C33,15.9 32.1,15 31,15 L25.35,15 L23.34,7.31 C22.39,5.33 20.39,4 18,4 Z M18,8 C19.1,8 20,8.9 20,10 L20,16 L26,16 C27.1,16 28,16.9 28,18 C28,19.1 27.1,20 26,20 L20,20 L20,26 C20,27.1 19.1,28 18,28 C16.9,28 16,27.1 16,26 L16,20 L10,20 C8.9,20 8,19.1 8,18 C8,16.9 8.9,16 10,16 L16,16 L16,10 C16,8.9 16.9,8 18,8 Z" fill="#00BFA5" fill-rule="nonzero"></path>
    </g>
</svg>
