<?xml version="1.0" encoding="UTF-8"?>
<svg width="64px" height="64px" viewBox="0 0 64 64" version="1.1" xmlns="http://www.w3.org/2000/svg" xmlns:xlink="http://www.w3.org/1999/xlink">
    <g stroke="none" stroke-width="1" fill="none" fill-rule="evenodd">
        <g fill="#FF6B6B" fill-rule="nonzero">
            <!-- Megaphone body -->
            <path d="M52,18c-0.552,0-1,0.448-1,1v26c0,0.552,0.448,1,1,1s1-0.448,1-1V19C53,18.448,52.552,18,52,18z"/>
            <path d="M55,14c-0.552,0-1,0.448-1,1v34c0,0.552,0.448,1,1,1s1-0.448,1-1V15C56,14.448,55.552,14,55,14z"/>
            <path d="M58,10c-0.552,0-1,0.448-1,1v42c0,0.552,0.448,1,1,1s1-0.448,1-1V11C59,10.448,58.552,10,58,10z"/>
            
            <!-- Megaphone cone -->
            <path d="M48,14c-0.26,0-0.521,0.11-0.71,0.29C47.109,14.48,47,14.74,47,15v34c0,0.26,0.109,0.52,0.29,0.71
                C47.479,49.89,47.74,50,48,50c0.552,0,1-0.448,1-1V15C49,14.448,48.552,14,48,14z"/>
                
            <!-- Sound waves -->
            <path d="M18,20h25c0.552,0,1,0.448,1,1v22c0,0.552-0.448,1-1,1H18c-0.552,0-1-0.448-1-1V21C17,20.448,17.448,20,18,20z"/>
            
            <!-- Speaker part -->
            <path d="M12,26h6v12h-6c-2.209,0-4-2.686-4-6S9.791,26,12,26z"/>
            
            <!-- Sound waves animation -->
            <path d="M10,36c0.256,0,0.512-0.098,0.707-0.293c0.391-0.391,0.391-1.023,0-1.414C9.56,33.146,9,31.611,9,30
                s0.56-3.146,1.707-4.293c0.391-0.391,0.391-1.023,0-1.414s-1.023-0.391-1.414,0C7.383,26.204,7,28.101,7,30
                s0.383,3.796,2.293,5.707C9.488,35.902,9.744,36,10,36z"/>
                
            <!-- Advertisement text -->
            <text x="27" y="35" font-family="Arial" font-size="10" font-weight="bold" fill="#FFFFFF" text-anchor="middle">AD</text>
        </g>
    </g>
</svg>