<?xml version="1.0" encoding="UTF-8"?>
<svg width="36px" height="36px" viewBox="0 0 36 36" version="1.1" xmlns="http://www.w3.org/2000/svg">
    <title>비즈니스 아이콘</title>
    <g stroke="none" stroke-width="1" fill="none" fill-rule="evenodd">
        <path d="M29,10 L23,10 L23,8 C23,5.79 21.21,4 19,4 L17,4 C14.79,4 13,5.79 13,8 L13,10 L7,10 C5.9,10 5,10.9 5,12 L5,28 C5,29.1 5.9,30 7,30 L29,30 C30.1,30 31,29.1 31,28 L31,12 C31,10.9 30.1,10 29,10 Z M15,8 C15,6.9 15.9,6 17,6 L19,6 C20.1,6 21,6.9 21,8 L21,10 L15,10 L15,8 Z M29,28 L7,28 L7,12 L29,12 L29,28 Z M18,15 C15.79,15 14,16.79 14,19 C14,21.21 15.79,23 18,23 C20.21,23 22,21.21 22,19 C22,16.79 20.21,15 18,15 Z M18,21 C16.9,21 16,20.1 16,19 C16,17.9 16.9,17 18,17 C19.1,17 20,17.9 20,19 C20,20.1 19.1,21 18,21 Z" fill="#7C4DFF" fill-rule="nonzero"></path>
    </g>
</svg>