<?xml version="1.0" encoding="UTF-8"?>
<svg width="24px" height="24px" viewBox="0 0 24 24" version="1.1" xmlns="http://www.w3.org/2000/svg">
    <title>페이스북 아이콘</title>
    <g stroke="none" stroke-width="1" fill="none" fill-rule="evenodd">
        <path d="M24,12.073c0,-6.627 -5.373,-12 -12,-12c-6.627,0 -12,5.373 -12,12c0,5.99 4.388,10.954 10.125,11.854l0,-8.385l-3.047,0l0,-3.469l3.047,0l0,-2.642c0,-3.007 1.792,-4.669 4.533,-4.669c1.312,0 2.686,0.235 2.686,0.235l0,2.953l-1.514,0c-1.491,0 -1.956,0.925 -1.956,1.874l0,2.249l3.328,0l-0.532,3.469l-2.796,0l0,8.385c5.737,-0.9 10.125,-5.864 10.125,-11.854Z" fill="#FFFFFF" fill-rule="nonzero"/>
    </g>
</svg>