<?xml version="1.0" encoding="UTF-8"?>
<svg width="48" height="48" viewBox="0 0 48 48" xmlns="http://www.w3.org/2000/svg">
  <path d="M22 6H18V18.88C16.24 17.67 14.04 17 11.66 17C6.94 17 3 20.94 3 25.66C3 30.38 6.94 34.33 11.66 34.33C15.77 34.33 19.3 31.33 20.07 27.35H22V42H26V6H22ZM11.66 30.33C9.14 30.33 7 28.19 7 25.67C7 23.14 9.14 21 11.66 21C14.19 21 16.33 23.14 16.33 25.67C16.33 28.19 14.19 30.33 11.66 30.33Z" fill="#4BC0C0"/>
  <path d="M36.13 17C30.58 17 26 21.58 26 27.13C26 32.67 30.58 37.25 36.13 37.25C41.67 37.25 46.25 32.67 46.25 27.13C46.25 21.58 41.67 17 36.13 17ZM36.13 33.25C32.79 33.25 30 30.46 30 27.13C30 23.79 32.79 21 36.13 21C39.46 21 42.25 23.79 42.25 27.13C42.25 30.46 39.46 33.25 36.13 33.25Z" fill="#4BC0C0"/>
  <path d="M36.13 23C33.91 23 32.01 24.9 32.01 27.13C32.01 29.35 33.91 31.25 36.13 31.25C38.36 31.25 40.26 29.35 40.26 27.13C40.26 24.9 38.36 23 36.13 23Z" fill="#4BC0C0"/>
</svg>
