<?xml version="1.0" encoding="UTF-8"?>
<svg width="48" height="48" viewBox="0 0 48 48" xmlns="http://www.w3.org/2000/svg">
  <path d="M30 12V6H18V12H6V42H42V12H30ZM21 9H27V12H21V9ZM39 39H9V15H18V18H30V15H39V39Z" fill="#36A2EB"/>
  <path d="M24 21C26.21 21 28 22.79 28 25C28 27.21 26.21 29 24 29C21.79 29 20 27.21 20 25C20 22.79 21.79 21 24 21ZM24 27C25.1 27 26 26.1 26 25C26 23.9 25.1 23 24 23C22.9 23 22 23.9 22 25C22 26.1 22.9 27 24 27Z" fill="#36A2EB"/>
  <path d="M32 31C30.67 31 29.4 31.4 28.31 32.11C30.34 33.66 31 35.87 31 38H37C37 34.13 34.87 31 32 31Z" fill="#36A2EB"/>
  <path d="M16 31C13.13 31 11 34.13 11 38H17C17 35.87 17.66 33.66 19.69 32.11C18.6 31.4 17.33 31 16 31Z" fill="#36A2EB"/>
  <path d="M24 31C21.33 31 16 32.34 16 35V38H32V35C32 32.34 26.67 31 24 31Z" fill="#36A2EB"/>
</svg>
