<?xml version="1.0" encoding="UTF-8"?>
<svg width="36px" height="36px" viewBox="0 0 36 36" version="1.1" xmlns="http://www.w3.org/2000/svg">
    <title>음악 아이콘</title>
    <g stroke="none" stroke-width="1" fill="none" fill-rule="evenodd">
        <path d="M12,26 L12,10 L24,8 L24,24 C24,25.1 23.1,26 22,26 L14,26 C12.9,26 12,25.1 12,24 C12,22.9 12.9,22 14,22 L22,22 L22,14 L16,15.4 L16,22 C16,23.1 15.1,24 14,24 L12,24 C10.9,24 10,23.1 10,22 C10,20.9 10.9,20 12,20 L14,20 L14,10.6 L26,8 L26,24 C26,27.31 23.31,30 20,30 L16,30 C12.69,30 10,27.31 10,24 L10,20 C8.34,20 7,18.66 7,17 C7,15.34 8.34,14 10,14 L14,14 L14,10 L10,10 L10,6 L16,4 L16,8 L26,6 L26,4 L30,4 L30,8 L26,8 L26,6 L16,8 L16,10 L30,8 L30,28 L28,30 L28,26 C26.9,26 26,25.1 26,24 L26,26 C26,28.21 24.21,30 22,30 L20,30 C17.79,30 16,28.21 16,26 L16,24 C14.9,24 14,23.1 14,22 L14,24 C14,26.21 12.21,28 10,28 L8,28 C7.46,28 7,27.54 7,27 C7,26.46 7.46,26 8,26 L10,26 C10.55,26 11,25.55 11,25 C11,24.45 10.55,24 10,24 L8,24 C7.39,24 6.85,24.2 6.4,24.53 C5.41,25.23 4.73,26.26 4.53,27.46 C4.24,29.24 5.5,30.87 7.26,30.99 C10.88,31.22 14,28.29 14,24.76 L14,24 C14,22.9 14.9,22 16,22 L16,26 C16,26.55 16.45,27 17,27 C17.55,27 18,26.55 18,26 L18,22 C18,20.9 18.9,20 20,20 L20,24 C20,24.55 20.45,25 21,25 C21.55,25 22,24.55 22,24 L22,20 C23.1,20 24,19.1 24,18 L24,14 C24,12.9 24.9,12 26,12 L30,12 L30,16 L26,16 L26,14 L24,14 L24,20 C22.9,20 22,19.1 22,18 L22,14 L24,14" fill="#FFCE56" fill-rule="nonzero"></path>
    </g>
</svg>