<?xml version="1.0" encoding="UTF-8"?>
<svg xmlns="http://www.w3.org/2000/svg" viewBox="0 0 24 24" fill="#7C4DFF">
  <path d="M12,10A2,2 0 0,1 14,12C14,12.5 13.82,12.94 13.53,13.29L16.7,18.3L15.42,19.08L12.25,14.05C12.17,14.07 12.09,14.09 12,14.09A2.1,2.1 0 0,1 9.91,12A2,2 0 0,1 12,10M20,5.23C20,5.86 19.5,6.36 18.87,6.36C18.24,6.36 17.74,5.86 17.74,5.23C17.74,4.6 18.24,4.11 18.87,4.11C19.5,4.11 20,4.6 20,5.23M18,9.5V5.93A3.93,3.93 0 0,0 14.07,2H9.93A3.93,3.93 0 0,0 6,5.93V9.5C4.76,10.35 4,11.83 4,13.5C4,15.17 4.76,16.65 6,17.5V19H18V17.5C19.24,16.65 20,15.17 20,13.5C20,11.83 19.24,10.35 18,9.5M14.83,14.83L14.93,15.24C15.31,16.64 14.82,18.19 13.61,19.31C12.5,20.34 10.96,20.83 9.61,20.46L9.5,20.41C9.5,20.41 9.13,20.14 9.5,19.86L9.97,19.5C10.33,19.25 10.27,18.5 9.97,18.21L9.92,18.15C9.62,17.86 8.89,17.8 8.63,18.16L8.28,18.63C8,19 7.72,18.63 7.72,18.63C7.38,17.3 7.87,15.8 9,14.75C10.23,13.64 11.81,13.15 13.22,13.55L13.63,13.65L10.56,10.56L9.31,9.31L10.56,8.05L9.31,6.8L10.56,5.54C10.83,5.29 10.83,4.85 10.56,4.6C10.29,4.34 9.85,4.34 9.58,4.6L8.32,5.85L7.05,4.59C6.79,4.33 6.35,4.33 6.08,4.59C5.82,4.85 5.82,5.29 6.08,5.56L7.34,6.81L6.09,8.07L2,12.18V19A2,2 0 0,0 4,21H10.81L14.83,14.83Z" />
</svg>