<?xml version="1.0" encoding="UTF-8"?>
<svg xmlns="http://www.w3.org/2000/svg" viewBox="0 0 24 24" fill="#00BFA5">
  <path d="M13.2,8.37L10.45,6L6.76,8.37L7.76,4.11L4,2H8.47L10.45,2.46L12.32,2H16.7L13.56,4.11L13.2,8.37M18.9,10L16.7,10.34L13.2,8.37L13.56,4.11L16.7,2H21.6C21.84,2 22,2.16 22,2.4L21.6,4.11L20.13,7.15L18.9,10M14.04,10H8.02C7.79,10 7.63,10.16 7.63,10.4L7.3,12.4L6.7,15.63L7.21,19.6L7.16,21.53C7.16,21.76 7.32,22 7.56,22H14.5C14.74,22 14.9,21.76 14.9,21.53L14.86,19.6L15.37,15.63L14.77,12.4L14.04,10Z" />
</svg>