<?xml version="1.0" encoding="UTF-8"?>
<svg width="36px" height="36px" viewBox="0 0 36 36" version="1.1" xmlns="http://www.w3.org/2000/svg">
    <title>팝업 스토어 아이콘</title>
    <g stroke="none" stroke-width="1" fill="none" fill-rule="evenodd">
        <path d="M30,6 L6,6 C4.9,6 4,6.9 4,8 L4,24 C4,25.1 4.9,26 6,26 L14,26 L14,30 L22,30 L22,26 L30,26 C31.1,26 32,25.1 32,24 L32,8 C32,6.9 31.1,6 30,6 Z M30,24 L6,24 L6,8 L30,8 L30,24 Z M18,13 C16.34,13 15,14.34 15,16 C15,17.66 16.34,19 18,19 C19.66,19 21,17.66 21,16 C21,14.34 19.66,13 18,13 Z M12,16 C12,12.69 14.69,10 18,10 C21.31,10 24,12.69 24,16 C24,19.31 21.31,22 18,22 C14.69,22 12,19.31 12,16 Z" fill="#FF6B6B" fill-rule="nonzero"></path>
    </g>
</svg>