<?xml version="1.0" encoding="UTF-8"?>
<svg width="36px" height="36px" viewBox="0 0 36 36" version="1.1" xmlns="http://www.w3.org/2000/svg">
    <title>이력서 아이콘</title>
    <g stroke="none" stroke-width="1" fill="none" fill-rule="evenodd">
        <path d="M28,4 L8,4 C6.9,4 6,4.9 6,6 L6,30 C6,31.1 6.9,32 8,32 L28,32 C29.1,32 30,31.1 30,30 L30,6 C30,4.9 29.1,4 28,4 Z M28,30 L8,30 L8,6 L28,6 L28,30 Z M12,12 L17,12 L17,10 L12,10 L12,12 Z M12,16 L24,16 L24,14 L12,14 L12,16 Z M12,20 L24,20 L24,18 L12,18 L12,20 Z M12,24 L21,24 L21,22 L12,22 L12,24 Z" fill="#36A2EB" fill-rule="nonzero"></path>
    </g>
</svg>