<?xml version="1.0" encoding="UTF-8"?>
<svg width="48" height="48" viewBox="0 0 48 48" xmlns="http://www.w3.org/2000/svg">
  <path d="M36 6H12C10.35 6 9 7.35 9 9V39C9 40.65 10.35 42 12 42H36C37.65 42 39 40.65 39 39V9C39 7.35 37.65 6 36 6ZM36 39H12V9H36V39ZM15 15V18H33V15H15ZM15 21V24H33V21H15ZM15 27V30H24V27H15Z" fill="#FF6B6B"/>
  <path d="M33 33.5C33 31.01 30.99 29 28.5 29C26.01 29 24 31.01 24 33.5C24 35.99 26.01 38 28.5 38C30.99 38 33 35.99 33 33.5ZM28.5 35C27.67 35 27 34.33 27 33.5C27 32.67 27.67 32 28.5 32C29.33 32 30 32.67 30 33.5C30 34.33 29.33 35 28.5 35Z" fill="#FF6B6B"/>
</svg>
