<?xml version="1.0" encoding="UTF-8"?>
<svg width="24px" height="24px" viewBox="0 0 24 24" version="1.1" xmlns="http://www.w3.org/2000/svg">
    <title>트위터 아이콘</title>
    <g stroke="none" stroke-width="1" fill="none" fill-rule="evenodd">
        <path d="M23.953,4.57a10,10 0 0 1,-2.825 0.775a4.958,4.958 0 0 0 2.163,-2.723a10.054,10.054 0 0 1,-3.127 1.184a4.92,4.92 0 0 0,-8.384 4.482c-4.086,-0.2 -7.7,-2.165 -10.15,-5.144a4.822,4.822 0 0 0,-0.666 2.475c0,1.71 0.87,3.213 2.188,4.096a4.904,4.904 0 0 1,-2.228 -0.616a4.92,4.92 0 0 0 3.95,4.829a4.98,4.98 0 0 1,-2.224 0.084a4.936,4.936 0 0 0 4.6,3.42a9.86,9.86 0 0 1,-6.115 2.107c-0.39,0 -0.779,-0.023 -1.17,-0.067a14.012,14.012 0 0 0 7.557,2.209c9.054,0 14.016,-7.5 14.016,-14.001c0,-0.21 0,-0.42 -0.016,-0.63a10.038,10.038 0 0 0 2.46,-2.548l-0.047,-0.02z" fill="#FFFFFF" fill-rule="nonzero"/>
    </g>
</svg>